HIERARCHY
ROOT Hips
{
	OFFSET 0.00000 0.00000 0.00000
	CHANNELS 6 Xposition Yposition Zposition Zrotation Yrotation Xrotation 
	JOINT LHipJoint
	{
		OFFSET 0 0 0
		CHANNELS 3 Zrotation Yrotation Xrotation
		JOINT LeftUpLeg
		{
			OFFSET 1.64577 -1.42384 0.94276
			CHANNELS 3 Zrotation Yrotation Xrotation
			JOINT LeftLeg
			{
				OFFSET 2.11538 -5.81197 0.00000
				CHANNELS 3 Zrotation Yrotation Xrotation
				JOINT LeftFoot
				{
					OFFSET 2.36541 -6.49893 0.00000
					CHANNELS 3 Zrotation Yrotation Xrotation
					JOINT LeftToeBase
					{
						OFFSET 0.17759 -0.48793 1.73865
						CHANNELS 3 Zrotation Yrotation Xrotation
						End Site
						{
							OFFSET 0.00000 -0.00000 0.91205
						}
					}
				}
			}
		}
	}
	JOINT RHipJoint
	{
		OFFSET 0 0 0
		CHANNELS 3 Zrotation Yrotation Xrotation
		JOINT RightUpLeg
		{
			OFFSET -1.43750 -1.42384 0.94276
			CHANNELS 3 Zrotation Yrotation Xrotation
			JOINT RightLeg
			{
				OFFSET -2.10480 -5.78291 0.00000
				CHANNELS 3 Zrotation Yrotation Xrotation
				JOINT RightFoot
				{
					OFFSET -2.34880 -6.45329 0.00000
					CHANNELS 3 Zrotation Yrotation Xrotation
					JOINT RightToeBase
					{
						OFFSET -0.22842 -0.62757 1.80469
						CHANNELS 3 Zrotation Yrotation Xrotation
						End Site
						{
							OFFSET -0.00000 -0.00000 0.95886
						}
					}
				}
			}
		}
	}
	JOINT LowerBack
	{
		OFFSET 0 0 0
		CHANNELS 3 Zrotation Yrotation Xrotation
		JOINT Spine
		{
			OFFSET 0.06217 1.93758 -0.49272
			CHANNELS 3 Zrotation Yrotation Xrotation
			JOINT Spine1
			{
				OFFSET -0.03114 2.03621 -0.05830
				CHANNELS 3 Zrotation Yrotation Xrotation
				JOINT Neck
				{
					OFFSET 0 0 0
					CHANNELS 3 Zrotation Yrotation Xrotation
					JOINT Neck1
					{
						OFFSET 0.04421 1.41010 0.26562
						CHANNELS 3 Zrotation Yrotation Xrotation
						JOINT Head
						{
							OFFSET -0.13407 1.43847 0.06181
							CHANNELS 3 Zrotation Yrotation Xrotation
							End Site
							{
								OFFSET -0.04980 1.45844 -0.00689
							}
						}
					}
				}
				JOINT LeftShoulder
				{
					OFFSET 0 0 0
					CHANNELS 3 Zrotation Yrotation Xrotation
					JOINT LeftArm
					{
						OFFSET 2.18382 1.47753 -0.35694
						CHANNELS 3 Zrotation Yrotation Xrotation
						JOINT LeftForeArm
						{
							OFFSET 5.05460 -0.00000 0.00000
							CHANNELS 3 Zrotation Yrotation Xrotation
							JOINT LeftHand
							{
								OFFSET 3.39013 -0.00000 0.00000
								CHANNELS 3 Zrotation Yrotation Xrotation
								JOINT LeftFingerBase
								{
									OFFSET 0 0 0
									CHANNELS 3 Zrotation Yrotation Xrotation
									JOINT LeftHandIndex1
									{
										OFFSET 0.57242 -0.00000 -0.00000
										CHANNELS 3 Zrotation Yrotation Xrotation
										End Site
										{
											OFFSET 0.46150 -0.00000 -0.00000
										}
									}
								}
								JOINT LThumb
								{
									OFFSET 0 0 0
									CHANNELS 3 Zrotation Yrotation Xrotation
									End Site
									{
										OFFSET 0.46855 -0.00000 0.46855
									}
								}
							}
						}
					}
				}
				JOINT RightShoulder
				{
					OFFSET 0 0 0
					CHANNELS 3 Zrotation Yrotation Xrotation
					JOINT RightArm
					{
						OFFSET -2.06033 1.72839 -0.47437
						CHANNELS 3 Zrotation Yrotation Xrotation
						JOINT RightForeArm
						{
							OFFSET -5.07010 -0.00000 0.00000
							CHANNELS 3 Zrotation Yrotation Xrotation
							JOINT RightHand
							{
								OFFSET -3.14957 -0.00000 -0.00000
								CHANNELS 3 Zrotation Yrotation Xrotation
								JOINT RightFingerBase
								{
									OFFSET 0 0 0
									CHANNELS 3 Zrotation Yrotation Xrotation
									JOINT RightHandIndex1
									{
										OFFSET -0.71819 -0.00000 -0.00000
										CHANNELS 3 Zrotation Yrotation Xrotation
										End Site
										{
											OFFSET -0.57902 -0.00000 -0.00000
										}
									}
								}
								JOINT RThumb
								{
									OFFSET 0 0 0
									CHANNELS 3 Zrotation Yrotation Xrotation
									End Site
									{
										OFFSET -0.58786 -0.00000 0.58786
									}
								}
							}
						}
					}
				}
			}
		}
	}
}
MOTION
Frames: 14
Frame Time: .0083333
42.327 14.9626 0.2955 0 0 0 0 0 0 -21 0 0 0 0 0 0 0 0 0 0 0 0 0 0 21 0 0 0 0 0 0 0 0 0 0 0 0 0 0 0 0 0 0 0 0 0 0 -16 0 0 21 0 0 11 0 0 0 -8 0 0 0 0 0 0 0 0 0 0 0 0 0 0 0 0 0 0 0 0 8 0 0 0 0 0 0 0 0 0 0 0 0 0 0 0 0 0
42.3270 14.9626 0.2955 -163.9180 -84.4841 162.7760 0.0000 0.0000 0.0000 -24.2596 -22.6732 -5.2524 4.4228 12.7027 38.2657 2.8518 13.5761 -38.8650 0.0323 1.1594 3.1876 0.0000 0.0000 0.0000 28.8922 17.2537 -3.9680 -3.5851 -11.5869 34.2858 -4.8683 -13.4588 -47.4539 -0.0280 1.0806 -2.9706 -6.0903 2.0380 3.0477 3.6617 2.5155 3.0887 7.1888 1.0959 1.0638 5.6285 3.1770 -8.5129 -6.0196 4.2248 10.9156 -2.4996 1.9123 4.9192 0.0000 0.0000 0.0000 -95.1262 -2.8383 31.0213 13.3017 -21.7277 -2.5639 -0.0000 -0.0000 10.2424 20.4248 8.2723 3.0669 -7.1250 0.0000 -0.0000 -5.5680 38.7424 0.8614 0.0000 0.0000 0.0000 82.7357 -1.2530 35.1291 -16.1407 25.7110 -3.7068 0.0000 -0.0000 -18.3028 -16.1405 0.1755 -0.0508 7.1250 -0.0000 -0.0000 8.1827 -29.7476 3.0725
42.3252 14.9620 0.2950 -164.2630 -84.5980 163.1100 0.0000 0.0000 0.0000 -24.3169 -22.6309 -5.2711 4.4243 12.7046 38.2725 2.8094 13.6085 -38.6810 0.0248 1.0161 2.7932 0.0000 0.0000 0.0000 28.8114 17.1574 -3.9927 -3.5828 -11.5836 34.2742 -4.8725 -13.5031 -47.4933 -0.0301 1.1191 -3.0765 -5.9890 2.0228 3.0423 3.5420 2.4990 3.1072 7.0042 1.0888 1.0974 5.5788 3.1134 -8.4623 -5.8568 4.1285 10.9489 -2.4483 1.8738 4.9107 -0.0000 -0.0000 0.0000 -94.9520 -2.8722 31.1484 13.2944 -21.7171 -2.5612 -0.0000 -0.0000 10.2291 20.4205 7.9868 2.9613 -7.1250 0.0000 -0.0000 -5.5352 38.4400 0.8975 -0.0000 -0.0000 0.0000 82.9702 -1.2120 34.8839 -16.0842 25.6347 -3.6823 0.0000 -0.0000 -18.0624 -16.1550 0.1762 -0.0510 7.1250 -0.0000 -0.0000 8.1713 -29.7470 3.0683
42.3228 14.9627 0.2934 -163.4990 -84.6468 162.3340 0.0000 0.0000 0.0000 -24.2606 -22.6483 -5.2463 4.4262 12.7069 38.2810 2.8178 13.5001 -38.6483 0.0273 1.0673 2.9341 0.0000 0.0000 0.0000 28.8872 17.1099 -3.9523 -3.5761 -11.5738 34.2405 -4.8607 -13.6000 -47.4990 -0.0325 1.1635 -3.1988 -5.8003 2.0106 3.0541 3.4751 2.4859 3.1137 6.8247 1.0853 1.1091 5.6611 3.1347 -8.5081 -5.8356 4.1450 11.0581 -2.4534 1.8851 4.9543 0.0000 0.0000 0.0000 -94.8144 -2.8763 31.2332 13.2961 -21.7195 -2.5618 -0.0000 -0.0000 10.1757 20.3959 7.8226 2.8971 -7.1250 0.0000 -0.0000 -5.5356 38.2645 0.9215 0.0000 0.0000 0.0000 83.1765 -1.2457 34.6472 -16.0812 25.6306 -3.6810 0.0000 -0.0000 -17.8767 -16.1743 0.3078 -0.0893 7.1250 -0.0000 -0.0000 8.1453 -29.6116 3.0849
42.3195 14.9639 0.2907 -162.0060 -84.6026 160.8280 0.0000 0.0000 0.0000 -24.1240 -22.6993 -5.1893 4.4275 12.7085 38.2870 2.8282 13.5092 -38.7049 0.0331 1.1748 3.2300 0.0000 0.0000 0.0000 29.1155 17.2476 -3.8209 -3.5717 -11.5675 34.2187 -4.8666 -13.7373 -47.5948 -0.0334 1.1802 -3.2448 -5.5539 2.0183 3.0580 3.4538 2.4994 3.1246 6.6600 1.0952 1.1256 5.7374 3.2060 -8.5846 -5.8829 4.2376 11.1913 -2.4729 1.9282 5.0165 0.0000 -0.0000 0.0000 -94.7191 -2.9235 31.2401 13.2774 -21.6924 -2.5549 -0.0000 -0.0000 10.1545 20.4069 8.0435 2.9799 -7.1250 0.0000 -0.0000 -5.5540 38.4990 0.8926 0.0000 -0.0000 0.0000 83.3108 -1.3223 34.5449 -16.1315 25.6986 -3.7028 0.0000 -0.0000 -17.9065 -16.1818 0.3602 -0.1045 7.1250 -0.0000 -0.0000 8.1352 -29.5577 3.0915
42.3145 14.9630 0.2886 -162.0730 -84.5848 160.8700 0.0000 0.0000 0.0000 -24.1707 -22.7501 -5.1037 4.4284 12.7096 38.2911 2.8303 13.6222 -38.7921 0.0349 1.2051 3.3132 0.0000 0.0000 0.0000 29.2098 17.4856 -3.6336 -3.5675 -11.5616 34.1980 -4.9095 -13.8192 -47.8032 -0.0305 1.1278 -3.1004 -5.4074 2.0220 3.0527 3.3617 2.5083 3.1362 6.4786 1.1021 1.1483 5.5592 3.3509 -8.6808 -5.6956 4.4338 11.3100 -2.3692 2.0262 5.0732 0.0000 0.0000 0.0000 -94.5923 -2.9823 31.1566 13.2574 -21.6632 -2.5475 -0.0000 -0.0000 10.1632 20.3441 8.0043 2.9556 -7.1250 0.0000 -0.0000 -5.6028 38.4531 0.9068 0.0000 0.0000 0.0000 83.4825 -1.3692 34.5003 -16.1529 25.7275 -3.7121 0.0000 -0.0000 -17.9398 -16.1379 0.3097 -0.0896 7.1250 -0.0000 -0.0000 8.1735 -29.6094 3.0962
42.3107 14.9598 0.2860 -162.3670 -84.6205 161.1610 0.0000 0.0000 0.0000 -24.2490 -22.8446 -5.0253 4.4257 12.7063 38.2787 2.8446 13.6456 -38.8774 0.0357 1.2195 3.3528 0.0000 0.0000 0.0000 29.2510 17.6591 -3.5003 -3.5675 -11.5615 34.1978 -5.0006 -13.6768 -48.0759 -0.0189 0.8882 -2.4413 -5.3190 2.0081 3.0523 3.2643 2.4935 3.1158 6.3249 1.0986 1.1367 5.5861 3.3888 -8.6704 -5.5330 4.4641 11.4092 -2.3205 2.0521 5.1010 -0.0000 -0.0000 0.0000 -94.4650 -2.9907 31.0290 13.2429 -21.6420 -2.5422 -0.0000 -0.0000 10.2144 20.2797 7.8476 2.8883 -7.1250 0.0000 -0.0000 -5.6380 38.2828 0.9362 -0.0000 -0.0000 0.0000 83.6688 -1.4354 34.4333 -16.1505 25.7243 -3.7110 0.0000 -0.0000 -17.8695 -16.0752 0.2927 -0.0844 7.1250 -0.0000 -0.0000 8.2238 -29.6263 3.1123
42.3103 14.9581 0.2802 -161.6970 -84.7722 160.5290 0.0000 0.0000 0.0000 -24.2059 -22.9319 -5.0441 4.4178 12.6965 38.2428 2.7946 13.7641 -38.7156 0.0244 1.0082 2.7713 0.0000 0.0000 0.0000 29.3483 17.8028 -3.4357 -3.5719 -11.5678 34.2198 -5.1235 -13.5016 -48.4513 -0.0085 0.5944 -1.6334 -5.2223 1.9641 3.0728 3.1913 2.4378 3.0559 6.1924 1.0775 1.0777 5.6767 3.3655 -8.6496 -5.4742 4.4166 11.5425 -2.3207 2.0357 5.1367 0.0000 -0.0000 0.0000 -94.3203 -2.9657 30.9819 13.2270 -21.6189 -2.5363 -0.0000 -0.0000 10.1963 20.2108 7.9139 2.9017 -7.1250 0.0000 -0.0000 -5.7053 38.3480 0.9383 0.0000 -0.0000 0.0000 83.8591 -1.5322 34.3083 -16.1257 25.6908 -3.7003 0.0000 -0.0000 -17.7608 -16.0123 0.4500 -0.1291 7.1250 -0.0000 -0.0000 8.2597 -29.4639 3.1584
42.3123 14.9625 0.2734 -161.9510 -85.0342 160.8860 0.0000 0.0000 0.0000 -24.2106 -22.9538 -5.2088 4.4121 12.6894 38.2168 2.7253 13.8153 -38.4127 0.0157 0.8097 2.2254 0.0000 0.0000 0.0000 29.2659 17.8834 -3.5153 -3.5734 -11.5700 34.2272 -5.1700 -13.6104 -48.6826 -0.0079 0.5756 -1.5816 -5.2653 1.9324 3.0459 3.1051 2.3997 2.9725 6.1263 1.0644 1.0138 5.7533 3.2998 -8.5945 -5.4307 4.3165 11.6719 -2.3279 1.9925 5.1623 -0.0000 -0.0000 0.0000 -94.1983 -2.9476 31.1269 13.2103 -21.5946 -2.5302 -0.0000 -0.0000 10.0676 20.1491 7.9943 2.9212 -7.1250 0.0000 -0.0000 -5.7683 38.4286 0.9373 -0.0000 -0.0000 0.0000 84.0114 -1.6327 34.1054 -16.1035 25.6608 -3.6907 0.0000 -0.0000 -17.6956 -15.9794 0.5644 -0.1616 7.1250 -0.0000 -0.0000 8.2760 -29.3460 3.1882
42.3064 14.9681 0.2690 -163.1120 -85.1167 162.1580 0.0000 0.0000 0.0000 -24.2685 -22.9504 -5.3032 4.4097 12.6865 38.2060 2.7671 13.5723 -38.4498 0.0243 1.0055 2.7638 0.0000 0.0000 0.0000 29.1244 17.8983 -3.6129 -3.5712 -11.5669 34.2164 -5.1643 -13.6766 -48.6951 -0.0102 0.6521 -1.7919 -5.2556 1.9328 2.8717 2.9886 2.4122 2.9340 6.0027 1.0722 1.0747 5.7418 3.2752 -8.5879 -5.2858 4.2691 11.8113 -2.2843 1.9772 5.1984 0.0000 0.0000 0.0000 -94.0777 -2.9449 31.1774 13.1977 -21.5762 -2.5255 -0.0000 -0.0000 9.9906 20.2171 7.9667 2.9219 -7.1250 0.0000 -0.0000 -5.7066 38.4043 0.9306 0.0000 0.0000 0.0000 84.1711 -1.6712 34.0035 -16.0879 25.6397 -3.6839 0.0000 -0.0000 -17.6357 -15.9459 0.4315 -0.1233 7.1250 -0.0000 -0.0000 8.3130 -29.4824 3.1754
42.3026 14.9670 0.2643 -162.3280 -85.0300 161.3540 0.0000 0.0000 0.0000 -24.1500 -22.8546 -5.2722 4.4097 12.6865 38.2059 2.8161 13.3493 -38.5375 0.0368 1.2386 3.4056 0.0000 0.0000 0.0000 29.2388 17.8220 -3.5732 -3.5698 -11.5649 34.2095 -5.2070 -13.3730 -48.7004 -0.0045 0.4332 -1.1902 -5.0251 1.9461 2.8587 2.9251 2.4345 2.9531 5.8045 1.0858 1.1093 5.7524 3.2990 -8.6198 -5.1893 4.2880 11.9220 -2.2539 1.9920 5.2374 -0.0000 -0.0000 0.0000 -93.9728 -2.9754 31.0271 13.1863 -21.5596 -2.5213 -0.0000 -0.0000 10.0176 20.2691 7.9335 2.9180 -7.1250 0.0000 -0.0000 -5.6579 38.3729 0.9269 -0.0000 -0.0000 0.0000 84.3675 -1.6222 33.9279 -16.0506 25.5893 -3.6678 0.0000 -0.0000 -17.4974 -15.8861 0.2760 -0.0785 7.1250 -0.0000 -0.0000 8.3727 -29.6420 3.1665
42.2966 14.9649 0.2606 -161.0920 -84.9917 160.1130 0.0000 0.0000 0.0000 -24.0232 -22.8361 -5.2381 4.4088 12.6854 38.2021 2.8091 13.3433 -38.4992 0.0423 1.3269 3.6488 0.0000 0.0000 0.0000 29.3632 17.7215 -3.5528 -3.5709 -11.5664 34.2147 -5.2637 -13.0251 -48.7388 -0.0004 0.1363 -0.3744 -4.7514 1.9283 2.8346 2.8692 2.4162 2.9621 5.5914 1.0801 1.1466 5.8669 3.3694 -8.6381 -5.1928 4.3694 12.0298 -2.2671 2.0357 5.2814 0.0000 0.0000 0.0000 -93.8766 -2.9589 30.8714 13.2121 -21.5972 -2.5308 -0.0000 -0.0000 10.0050 20.2514 8.0075 2.9422 -7.1250 0.0000 -0.0000 -5.6825 38.4498 0.9202 0.0000 0.0000 0.0000 84.5573 -1.5927 33.8877 -16.0176 25.5445 -3.6535 0.0000 -0.0000 -17.4706 -15.9391 0.2483 -0.0709 7.1250 -0.0000 -0.0000 8.3338 -29.6710 3.1457
42.2909 14.9636 0.2574 -162.1180 -85.0361 161.1310 0.0000 0.0000 0.0000 -24.1458 -22.8795 -5.1865 4.4056 12.6814 38.1873 2.7961 13.4313 -38.4954 0.0379 1.2559 3.4533 0.0000 0.0000 0.0000 29.2584 17.6573 -3.5650 -3.5749 -11.5722 34.2350 -5.2499 -13.0577 -48.7031 -0.0009 0.1894 -0.5205 -4.6742 1.9110 2.8534 2.7468 2.3961 2.9291 5.4183 1.0750 1.1122 5.9898 3.4698 -8.6807 -5.1084 4.4792 12.2546 -2.2514 2.0984 5.3659 -0.0000 0.0000 0.0000 -93.7687 -2.8362 30.6848 13.2678 -21.6783 -2.5513 -0.0000 -0.0000 10.0874 20.1876 9.5860 3.5038 -7.1250 0.0000 -0.0000 -5.9547 40.1113 0.7206 -0.0000 0.0000 0.0000 84.7337 -1.6530 33.8822 -15.9985 25.5186 -3.6453 0.0000 -0.0000 -17.5604 -16.0054 0.3104 -0.0890 7.1250 -0.0000 -0.0000 8.2768 -29.6076 3.1364
42.2859 14.9628 0.2528 -164.0300 -85.0726 163.0190 0.0000 0.0000 0.0000 -24.3366 -22.8625 -5.1166 4.3973 12.6711 38.1496 2.8051 13.4727 -38.5678 0.0305 1.1276 3.1000 0.0000 0.0000 0.0000 29.0996 17.6748 -3.5779 -3.5816 -11.5818 34.2682 -5.1752 -13.4399 -48.6147 -0.0064 0.5176 -1.4222 -6.0834 2.3977 2.5716 3.5004 3.0321 2.9473 7.0103 1.3645 1.1049 6.0862 2.9040 -8.5737 -5.8865 3.8161 12.6936 -2.5666 1.7227 5.4609 -0.0000 0.0000 0.0000 -95.0194 -2.7559 31.3494 13.1802 -21.5507 -2.5191 -0.0000 -0.0000 10.8103 19.9026 14.2143 5.0803 -7.1250 0.0000 -0.0000 -7.0383 44.9405 0.0104 -0.0000 0.0000 0.0000 83.6523 -2.0772 32.7765 -16.1281 25.6940 -3.7013 0.0000 -0.0000 -17.9175 -15.9051 0.3879 -0.1105 7.1250 -0.0000 -0.0000 8.3485 -29.5270 3.1803
